<svg fill="none" height="1192" viewBox="0 0 1240 1192" width="1240" xmlns="http://www.w3.org/2000/svg"><path d="m620.002 1020.57c-146.779 0-281.623-10.67-387.795-43.789l343.858 200.709c25.667 18.74 62.236 18.74 87.902 0l343.863-200.709c-106.206 33.149-241.02 43.789-387.799 43.789z" fill="#9332f1"/><path d="m951.75 210.142c31.619-16.296 64.3-25.165 93.35-25.165 7.4 0 14.59.559 21.37 1.709 19.39 3.212 35.12 10.873 46.79 22.808 26.64 27.198 24.55 68.718 20.95 91.055-3.71 22.955-12.28 47.06-24.98 70.457l-157.509-160.835z" fill="#fff"/><path d="m1045.1 173.24v23.457c6.75 0 13.29.53 19.45 1.532 16.89 2.799 30.44 9.341 40.34 19.449 23.05 23.515 21.01 60.821 17.77 80.977-2.74 17.032-8.37 34.772-16.53 52.393l-134.548-137.407c25.283-11.051 50.658-16.974 73.488-16.974v-23.456m0 0c-35.68 0-75.256 12.17-112.504 34.094l179.044 182.847c17.56-28.436 29.44-58.611 34.16-87.784 3.94-24.517 6.07-70.251-24.17-101.133-13.47-13.732-31.38-22.543-53.25-26.168-7.51-1.237-15.29-1.856-23.28-1.856z" fill="#000"/><path d="m1171.08 429.462c62-98.982 65.88-212.167 1.41-277.998-63.39-64.7406-173.919-64.3575-272.901-7.426-28.76-82.4211-143.36-144.038-280.414-144.038v85.8983c-95.328.1473-185.617 24.2517-266.27 65.2707-101.899-63.9447-218.827-67.0682-284.7757.265-64.35743 65.713-60.58558 178.604 1.0608 277.468-44.2015 82.068-69.1901 171.473-69.1901 259.463 0 293.292 277.586 356.945 620 356.945s620-63.653 620-356.945c0-87.784-24.87-176.983-68.9-258.874z" fill="#ff8e80"/><path d="m948.802 891.981c0-117.016-147.221-236.301-328.8-236.301-181.58 0-328.801 119.255-328.801 236.301 0 117.049 147.221 127.389 328.801 127.389 181.579 0 328.8-10.37 328.8-127.389z" fill="#fff"/><path d="m664.348 659.858c0-21.953-19.861-23.014-44.378-23.014s-44.378 1.061-44.378 23.014 21.04 40.783 45.527 40.783c24.488 0 43.2-18.83 43.2-40.783z" fill="#333"/><path d="m621.177 711.201c-30.411 0-56.077-23.515-56.077-51.333 0-14.498 6.866-24.752 19.861-29.615 9.724-3.654 21.629-3.948 35.066-3.948 13.438 0 25.343.294 35.067 3.948 12.995 4.863 19.861 15.117 19.861 29.615 0 28.319-24.104 51.333-53.749 51.333zm-1.179-63.797c-30.764 0-33.8 3.595-33.8 12.435 0 16.089 16.355 30.234 34.979 30.234 18.623 0 32.65-13.555 32.65-30.234 0-8.84-3.065-12.435-33.8-12.435z" fill="#333"/><path d="m849.081 736.592c40.084 0 72.579-59.224 72.579-132.28 0-73.057-32.495-132.281-72.579-132.281s-72.579 59.224-72.579 132.281c0 73.056 32.495 132.28 72.579 132.28z" fill="#333"/><path d="m849.078 748.294c-47.266 0-84.277-63.238-84.277-143.979s37.011-143.979 84.277-143.979c47.267 0 84.278 63.238 84.278 143.979s-37.011 143.979-84.278 143.979zm0-264.561c-33.003 0-60.85 55.223-60.85 120.582s27.876 120.582 60.85 120.582c32.975 0 60.881-55.223 60.881-120.582s-27.877-120.582-60.881-120.582z" fill="#333"/><path d="m863.49 695.82c-23.25 0-49.123-39.163-49.123-95.328s25.902-95.328 49.123-95.328c23.22 0 49.123 39.163 49.123 95.328s-25.903 95.328-49.123 95.328z" fill="#fff"/><path d="m390.923 736.022c40.084 0 72.579-59.224 72.579-132.281 0-73.056-32.495-132.28-72.579-132.28-40.085 0-72.579 59.224-72.579 132.28 0 73.057 32.494 132.281 72.579 132.281z" fill="#333"/><path d="m390.92 747.747c-47.266 0-84.277-63.237-84.277-143.979 0-80.741 37.011-143.979 84.277-143.979s84.278 63.238 84.278 143.979c0 80.742-37.012 143.979-84.278 143.979zm0-264.561c-33.004 0-60.851 55.223-60.851 120.582s27.877 120.582 60.851 120.582 60.88-55.223 60.88-120.582-27.876-120.582-60.88-120.582z" fill="#333"/><path d="m405.359 695.265c-23.25 0-49.123-39.162-49.123-95.328 0-56.165 25.902-95.328 49.123-95.328 23.22 0 49.123 39.163 49.123 95.328 0 56.166-25.903 95.328-49.123 95.328z" fill="#fff"/><path d="m620 853.227c-32.326 0-58.611-21.04-58.611-46.883s26.285-46.883 58.611-46.883 58.611 21.04 58.611 46.883-26.285 46.883-58.611 46.883z" fill="#cb7878"/><path d="m619.998 771.198c25.401 0 46.883 16.09 46.883 35.155 0 19.066-21.482 35.155-46.883 35.155-25.402 0-46.884-16.089-46.884-35.155 0-19.065 21.482-35.155 46.884-35.155zm0-23.456c-38.839 0-70.34 26.226-70.34 58.611s31.501 58.612 70.34 58.612c38.838 0 70.339-26.227 70.339-58.612s-31.501-58.611-70.339-58.611z" fill="#333"/><path d="m619.912 743c0 26.698-27.228 48.356-60.85 48.356-33.623 0-60.851-21.658-60.851-48.356" fill="#fff"/><path d="m619.912 743c0 26.698-27.228 48.356-60.85 48.356-33.623 0-60.851-21.658-60.851-48.356" stroke="#333" stroke-linecap="round" stroke-miterlimit="10" stroke-width="27.4639"/><path d="m741.76 743c0 26.698-27.228 48.356-60.851 48.356-33.622 0-60.85-21.658-60.85-48.356" fill="#fff"/><path d="m741.76 743c0 26.698-27.228 48.356-60.851 48.356-33.622 0-60.85-21.658-60.85-48.356" stroke="#333" stroke-linecap="round" stroke-miterlimit="10" stroke-width="27.4639"/><g fill="#333"><path d="m642.573 144.282c-5.304-5.393-12.465-8.134-21.335-8.134h-5.334c-9.164 0-16.472 2.741-21.806 8.163-9.842 10.019-9.547 25.578-9.223 42.05l4.509 160.57c.618 33.18 16.001 48.032 31 48.032s30.381-14.852 31-48.032l.884-159.479c.294-15.324.618-32.68-9.666-43.141z"/><path d="m476.694 346.532c3.742-52.57 19.802-103.52 47.355-150.344 11.345-18.83 22.336-33.799 5.54-41.933-1.562-.736-3.095-1.473-4.656-2.21-17.622-8.516-29.321 8.016-40.784 28.614-28.053 51.067-43.464 106.113-45.645 162.396 0 52.364 36.51 51.303 38.19 3.448z"/><path d="m545.887 173.862c-2.033 6.483-6.276 13.408-11.08 21.276-.854 1.415-1.738 2.859-2.622 4.302-27.199 46.206-42.876 95.947-46.559 147.81-.943 26.551-12.377 43.023-29.085 41.992-6.335-.383-26.963-4.921-26.992-46.648v-.206c2.239-57.462 17.828-112.92 46.323-164.813 10.52-18.918 19.773-31.206 33.357-34.123 4.509-.973 11.67-1.297 20.068 2.77l4.567 2.18c7.338 3.537 15.441 10.314 12.76 22.72-.206.884-.442 1.798-.737 2.711zm-63.326 93.708c8.045-25.667 19.154-50.596 33.299-74.612.913-1.533 1.827-2.977 2.681-4.421 11.404-18.653 13.821-25.018 6.66-28.465l-4.597-2.181c-3.241-1.562-4.862-1.208-5.569-1.061-8.752 1.886-18.506 19.419-22.691 26.904-27.64 50.301-42.757 104.109-44.938 159.862.03 23.015 7.22 30.824 9.371 31.796 2.77-.737 10.225-8.929 10.932-29.527v-.176c1.886-26.639 6.866-52.718 14.823-78.09z"/><path d="m763.301 346.532c-3.742-52.57-19.802-103.52-47.355-150.344-11.345-18.83-22.336-33.799-5.54-41.933 1.562-.736 3.095-1.473 4.656-2.21 17.622-8.516 29.321 8.016 40.784 28.614 28.053 51.067 43.464 106.113 45.645 162.396 0 52.364-36.51 51.303-38.19 3.448z"/><path d="m693.372 171.145c-2.681-12.405 5.423-19.183 12.76-22.719l4.567-2.181c8.399-4.066 15.53-3.742 20.068-2.77 13.585 2.918 22.837 15.206 33.357 34.124 28.496 51.892 44.084 107.321 46.324 164.813v.206c0 41.756-20.657 46.264-26.993 46.647-16.708 1.032-28.141-15.441-29.084-41.991-3.684-51.863-19.361-101.605-46.559-147.81-.884-1.473-1.768-2.888-2.623-4.302-4.803-7.868-9.047-14.793-11.08-21.276-.295-.914-.53-1.827-.737-2.711zm78.856 174.538v.176c.737 20.598 8.192 28.79 10.962 29.527 2.151-.972 9.341-8.752 9.371-31.796-2.181-55.753-17.327-109.561-44.939-159.862-4.184-7.485-13.938-25.018-22.69-26.904-.707-.147-2.328-.501-5.569 1.061l-4.597 2.181c-7.131 3.447-4.744 9.812 6.66 28.465.884 1.444 1.768 2.888 2.681 4.421 14.145 24.016 25.254 48.945 33.299 74.612 7.956 25.371 12.907 51.48 14.792 78.089z"/><path d="m1117.24 728.314 109.91 60.468c8.43-30.057 12.85-63.415 12.85-100.426 0-28.378-2.62-56.932-7.63-85.309l-109.36 41.726c-36.71 14.027-40.25 64.593-5.8 83.541z"/><path d="m123.235 728.314-109.9144 60.468c-8.39832-30.057-12.847944-63.415-12.847944-100.426 0-28.378 2.622624-56.932 7.632134-85.309l109.35421 41.726c36.717 14.027 40.253 64.593 5.805 83.541z"/><path d="m1127.84 789.311c-31.56-6.866-56.69 26.344-41.52 54.869l46.33 87.018c39.69-31.796 69.72-71.783 87.75-121.76z"/><path d="m112.156 789.311c31.56-6.866 56.695 26.344 41.52 54.869l-46.324 87.018c-39.6926-31.796-69.7201-71.783-87.7543-121.76z"/></g><path d="m1121.86 374.33c8.76-19.095 14.89-38.544 17.95-57.521 3.95-24.517 6.07-70.251-24.16-101.133-13.47-13.732-31.39-22.543-53.25-26.167-33.36-5.54-71.931 1.473-109.65 18.623 66.24 45.322 123.71 102.371 169.11 166.198z" fill="#fff"/><path d="m118.134 374.33c-8.752-19.095-14.881-38.544-17.946-57.521-3.9485-24.517-6.0702-70.251 24.164-101.133 13.466-13.732 31.383-22.543 53.248-26.167 33.357-5.54 71.93 1.473 109.649 18.623-66.243 45.322-123.705 102.371-169.115 166.198z" fill="#fff"/></svg>